<svg width="34" height="34" viewBox="0 0 34 34" fill="none" xmlns="http://www.w3.org/2000/svg">
<path d="M23.9425 8.51472L17 15.4572L10.0575 8.51472C9.85292 8.31013 9.57545 8.1952 9.28612 8.1952C8.99679 8.1952 8.71932 8.31013 8.51473 8.51472C8.31015 8.7193 8.19521 8.99678 8.19521 9.28611C8.19521 9.57543 8.31015 9.85291 8.51473 10.0575L15.4572 17L8.51473 23.9425C8.31015 24.1471 8.19521 24.4246 8.19521 24.7139C8.19521 25.0032 8.31015 25.2807 8.51473 25.4853C8.71932 25.6899 8.99679 25.8048 9.28612 25.8048C9.57545 25.8048 9.85292 25.6899 10.0575 25.4853L17 18.5428L23.9425 25.4853C24.1471 25.6899 24.4246 25.8048 24.7139 25.8048C25.0032 25.8048 25.2807 25.6899 25.4853 25.4853C25.6899 25.2807 25.8048 25.0032 25.8048 24.7139C25.8048 24.4246 25.6899 24.1471 25.4853 23.9425L18.5428 17L25.4853 10.0575C25.6899 9.85291 25.8048 9.57543 25.8048 9.28611C25.8048 8.99678 25.6899 8.7193 25.4853 8.51472C25.2807 8.31013 25.0032 8.1952 24.7139 8.1952C24.4246 8.1952 24.1471 8.31013 23.9425 8.51472Z" fill="white"/>
</svg>
