<svg width="20" height="20" viewBox="0 0 20 20" fill="none" xmlns="http://www.w3.org/2000/svg">
<path d="M5.37914 4.22511C5.2279 4.07903 5.02533 3.9982 4.81507 4.00003C4.60481 4.00186 4.40368 4.0862 4.25499 4.23488C4.10631 4.38356 4.02197 4.58469 4.02014 4.79496C4.01832 5.00522 4.09915 5.20779 4.24522 5.35903L8.87634 9.99015L4.24442 14.6213C4.16783 14.6952 4.10674 14.7837 4.06471 14.8816C4.02268 14.9794 4.00056 15.0846 3.99963 15.1911C3.99871 15.2976 4.019 15.4032 4.05932 15.5017C4.09964 15.6003 4.15919 15.6898 4.23448 15.7651C4.30978 15.8404 4.39931 15.9 4.49787 15.9403C4.59642 15.9806 4.70202 16.0009 4.8085 16C4.91497 15.999 5.0202 15.9769 5.11804 15.9349C5.21588 15.8929 5.30437 15.8318 5.37834 15.7552L10.0103 11.1241L14.6414 15.7552C14.7926 15.9013 14.9952 15.9821 15.2054 15.9803C15.4157 15.9784 15.6168 15.8941 15.7655 15.7454C15.9142 15.5967 15.9985 15.3956 16.0004 15.1853C16.0022 14.9751 15.9214 14.7725 15.7753 14.6213L11.1442 9.99015L15.7753 5.35903C15.9214 5.20779 16.0022 5.00522 16.0004 4.79496C15.9985 4.58469 15.9142 4.38356 15.7655 4.23488C15.6168 4.0862 15.4157 4.00186 15.2054 4.00003C14.9952 3.9982 14.7926 4.07903 14.6414 4.22511L10.0103 8.85622L5.37914 4.22431V4.22511Z" fill="white"/>
</svg>
