<svg width="20" height="20" viewBox="0 0 20 20" fill="none" xmlns="http://www.w3.org/2000/svg">
<path d="M3.33334 17.7778C3.33334 19 4.33334 20 5.55556 20H14.4445C15.6667 20 16.6667 19 16.6667 17.7778V6.66667C16.6667 5.44444 15.6667 4.44444 14.4445 4.44444H5.55556C4.33334 4.44444 3.33334 5.44444 3.33334 6.66667V17.7778ZM6.66667 6.66667H13.3333C13.9445 6.66667 14.4445 7.16667 14.4445 7.77778V16.6667C14.4445 17.2778 13.9445 17.7778 13.3333 17.7778H6.66667C6.05556 17.7778 5.55556 17.2778 5.55556 16.6667V7.77778C5.55556 7.16667 6.05556 6.66667 6.66667 6.66667ZM13.8889 1.11111L13.1 0.322222C12.9 0.122222 12.6111 0 12.3222 0H7.67779C7.3889 0 7.10001 0.122222 6.90001 0.322222L6.11112 1.11111H3.33334C2.72223 1.11111 2.22223 1.61111 2.22223 2.22222C2.22223 2.83333 2.72223 3.33333 3.33334 3.33333H16.6667C17.2778 3.33333 17.7778 2.83333 17.7778 2.22222C17.7778 1.61111 17.2778 1.11111 16.6667 1.11111H13.8889Z" fill="white"/>
</svg>
