<svg width="220" height="85" viewBox="0 0 220 85" fill="none" xmlns="http://www.w3.org/2000/svg">
<g clip-path="url(#clip0)">
<path d="M72.8748 82.0461C70.6877 82.8486 68.1945 81.9646 67.3449 79.7935C66.9271 78.7259 66.5808 77.6424 66.3063 76.5429C65.7877 74.0965 65.5286 71.3535 65.5286 68.314V50.1883C65.5286 46.4075 64.8989 43.6274 63.6399 41.8482C62.3808 40.069 60.4921 39.1794 57.9738 39.1794C52.1225 39.1794 49.1969 42.849 49.1969 50.1883V80.186C49.1969 81.4793 48.4143 82.6439 47.177 83.0161C43.5599 84.1043 36.1202 85.6252 33.6041 80.7368C32.5642 78.7163 34.754 75.3753 34.754 75.3753V50.0771C34.754 46.1479 34.1615 43.3679 32.9764 41.737C31.8654 40.0318 30.0509 39.1794 27.5325 39.1794C24.3476 39.1794 22.0146 40.3284 20.5333 42.6266C19.052 44.8507 18.3113 48.2237 18.3113 52.7459V80.0492C18.3113 81.41 17.4477 82.6185 16.1284 82.9471C12.3283 83.8934 4.68913 85.1534 2.45667 80.7368C1.20199 78.2546 3.64618 75.3753 3.64618 75.3753V43.5162C3.64618 41.2922 3.46102 39.3646 3.09068 37.7338C2.95655 36.9954 2.75411 36.2189 2.48335 35.4046C1.906 33.6681 2.63065 31.6999 4.32298 31.0069L9.53148 28.8743C11.7545 27.964 14.3252 28.8592 15.0818 31.1407C15.1218 31.2614 15.1614 31.3833 15.2005 31.5065C15.7931 33.1374 16.1264 34.546 16.2004 35.7322C17.7558 32.9892 19.8297 30.9134 22.422 29.5049C25.0142 28.0221 27.7917 27.2809 30.7544 27.2809C36.6057 27.2809 40.9386 30.0238 43.7531 35.5098C46.1231 32.6186 48.6784 30.5428 51.4189 29.2825C54.1594 27.9481 57.4183 27.2809 61.1957 27.2809C67.2692 27.2809 71.9353 29.0601 75.1942 32.6186C78.5272 36.177 80.1937 40.8474 80.1937 46.6299V67.9804C80.1937 71.3366 80.6955 74.316 81.6992 76.9188C82.0402 77.803 81.6373 78.8302 80.7482 79.1565L72.8748 82.0461Z" fill="white"/>
<path d="M165.009 83.4374C163.009 83.4374 161.342 82.9554 160.009 81.9918C158.75 81.028 158.12 79.8048 158.12 78.3221C158.12 77.5808 158.194 77.0248 158.342 76.6541L158.564 75.9869L139.493 30.5973C139.053 29.5504 139.821 28.3929 140.956 28.3929H150.572C152.57 28.3929 154.355 29.6411 155.043 31.5185L166.564 62.9764L178.358 30.4851C178.815 29.229 180.007 28.3929 181.342 28.3929H187.305C190.703 28.3929 193.007 31.8537 191.699 34.993L173.23 79.323C172.638 80.7314 171.711 81.7694 170.452 82.4366C169.194 83.1038 167.378 83.4374 165.009 83.4374Z" fill="white"/>
<path d="M202.773 29.9815C202.773 29.1042 203.484 28.3929 204.36 28.3929H212.677C215.306 28.3929 217.438 30.5266 217.438 33.1587V76.7695C217.438 80.1058 215.352 83.1613 212.053 83.6353C208.229 84.1847 203.495 83.9751 201.841 80.1411C200.86 77.8686 202.773 75.9869 202.773 75.9869V29.9815Z" fill="white"/>
<path d="M208.785 19.9734C214.044 19.9734 218.308 15.706 218.308 10.4419C218.308 5.17779 214.044 0.910385 208.785 0.910385C203.526 0.910385 199.262 5.17779 199.262 10.4419C199.262 15.706 203.526 19.9734 208.785 19.9734Z" fill="white"/>
<path d="M113.159 82.8814C128.061 82.8814 140.14 70.7904 140.14 55.8754C140.14 40.9605 128.061 28.8695 113.159 28.8695C98.2578 28.8695 86.1779 40.9605 86.1779 55.8754C86.1779 70.7904 98.2578 82.8814 113.159 82.8814Z" fill="white"/>
<path d="M122.484 55.8754C122.484 59.3848 125.326 62.2298 128.832 62.2298C132.338 62.2298 135.181 59.3848 135.181 55.8754C135.181 52.366 132.338 49.5211 128.832 49.5211C125.326 49.5211 122.484 52.366 122.484 55.8754Z" fill="#FF8540"/>
<path d="M91.1377 55.8754C91.1377 59.3848 93.98 62.2298 97.4862 62.2298C100.992 62.2298 103.835 59.3848 103.835 55.8754C103.835 52.366 100.992 49.5211 97.4862 49.5211C93.98 49.5211 91.1377 52.366 91.1377 55.8754Z" fill="#FF8540"/>
<path d="M113.159 65.2084C109.653 65.2084 106.811 68.0533 106.811 71.5627C106.811 75.0721 109.653 77.917 113.159 77.917C116.665 77.917 119.508 75.0721 119.508 71.5627C119.508 68.0533 116.665 65.2084 113.159 65.2084Z" fill="#FF8540"/>
<path d="M113.159 33.8338C109.653 33.8338 106.811 36.6788 106.811 40.1882C106.811 43.6976 109.653 46.5425 113.159 46.5425C116.665 46.5425 119.508 43.6976 119.508 40.1882C119.508 36.6788 116.665 33.8338 113.159 33.8338Z" fill="#FF8540"/>
<circle cx="113.159" cy="56.1266" r="2.61877" fill="#FF8540"/>
</g>
<defs>
<clipPath id="clip0">
<rect width="219.025" height="84.195" fill="white" transform="translate(0.487671 0.076416)"/>
</clipPath>
</defs>
</svg>
