<svg width="88" height="50" viewBox="0 0 88 50" fill="none" xmlns="http://www.w3.org/2000/svg">
<path d="M24.59 24.592L23.816 31H20.612L22.646 17.77L28.028 25.438L33.392 17.77L35.444 31H32.222L31.466 24.592L28.028 29.83L24.59 24.592ZM37.2733 18.4H40.3153V26.644C40.3153 27.28 40.4833 27.796 40.8193 28.192C41.1553 28.588 41.6593 28.786 42.3313 28.786C43.0033 28.786 43.5073 28.588 43.8433 28.192C44.1913 27.796 44.3653 27.28 44.3653 26.644V18.4H47.4073V26.86C47.4073 27.916 47.1793 28.792 46.7233 29.488C46.2793 30.172 45.6733 30.682 44.9053 31.018C44.1373 31.354 43.2793 31.522 42.3313 31.522C41.3833 31.522 40.5253 31.354 39.7573 31.018C39.0013 30.682 38.3953 30.172 37.9393 29.488C37.4953 28.792 37.2733 27.916 37.2733 26.86V18.4ZM55.2763 25.906L58.3363 18.4H61.9003L55.2763 31.792L48.6343 18.4H52.1983L55.2763 25.906ZM63.2207 18.4H66.3167V31H63.2207V18.4Z" fill="white"/>
</svg>
