<svg width="16" height="16" viewBox="0 0 16 16" fill="none" xmlns="http://www.w3.org/2000/svg">
<g clip-path="url(#clip0)">
<path d="M8.47415 8.80004L6.63416 10.632C6.55918 10.7064 6.49967 10.7949 6.45905 10.8924C6.41844 10.9899 6.39753 11.0944 6.39753 11.2C6.39753 11.3056 6.41844 11.4102 6.45905 11.5077C6.49967 11.6052 6.55918 11.6936 6.63416 11.768C6.70853 11.843 6.79701 11.9025 6.8945 11.9431C6.99199 11.9837 7.09655 12.0047 7.20216 12.0047C7.30777 12.0047 7.41233 11.9837 7.50982 11.9431C7.60731 11.9025 7.69579 11.843 7.77016 11.768L10.9701 8.56804C11.043 8.49195 11.1001 8.40224 11.1381 8.30404C11.2182 8.10927 11.2182 7.89081 11.1381 7.69604C11.1001 7.59784 11.043 7.50813 10.9701 7.43204L7.77016 4.23206C7.69557 4.15747 7.60702 4.0983 7.50956 4.05793C7.4121 4.01756 7.30765 3.99679 7.20216 3.99679C7.09667 3.99679 6.99222 4.01756 6.89476 4.05793C6.79731 4.0983 6.70875 4.15747 6.63416 4.23206C6.55957 4.30665 6.5004 4.3952 6.46004 4.49266C6.41967 4.59011 6.39889 4.69457 6.39889 4.80006C6.39889 4.90554 6.41967 5.01 6.46004 5.10745C6.5004 5.20491 6.55957 5.29346 6.63416 5.36805L8.47415 7.20004H0.802193C0.590021 7.20004 0.386539 7.28433 0.236511 7.43436C0.0864823 7.58439 0.00219727 7.78787 0.00219727 8.00004C0.00219727 8.21221 0.0864823 8.41569 0.236511 8.56572C0.386539 8.71575 0.590021 8.80004 0.802193 8.80004H8.47415ZM8.00216 7.97545e-05C6.50704 -0.00659524 5.03997 0.405848 3.76735 1.19063C2.49474 1.97541 1.46751 3.10111 0.802193 4.44006C0.706716 4.63101 0.691005 4.85207 0.758518 5.05461C0.826031 5.25715 0.971237 5.42457 1.16219 5.52005C1.35315 5.61553 1.57421 5.63124 1.77675 5.56373C1.97928 5.49621 2.14671 5.35101 2.24219 5.16005C2.74794 4.13872 3.51725 3.27096 4.47061 2.64646C5.42398 2.02195 6.52682 1.66337 7.66516 1.60775C8.8035 1.55213 9.93605 1.80149 10.9458 2.33008C11.9555 2.85866 12.8057 3.64729 13.4086 4.61445C14.0115 5.58162 14.3452 6.69224 14.3752 7.83155C14.4053 8.97085 14.1305 10.0975 13.5793 11.0951C13.0282 12.0926 12.2206 12.9249 11.2402 13.506C10.2597 14.087 9.14185 14.3956 8.00216 14.4C6.80927 14.4052 5.63909 14.0739 4.62593 13.4442C3.61276 12.8145 2.79767 11.9119 2.27419 10.84C2.17871 10.6491 2.01129 10.5039 1.80875 10.4364C1.60621 10.3688 1.38515 10.3846 1.19419 10.48C1.00324 10.5755 0.858031 10.7429 0.790518 10.9455C0.723005 11.148 0.738716 11.3691 0.834193 11.56C1.46845 12.8364 2.4322 13.9202 3.62576 14.6992C4.81931 15.4783 6.19932 15.9243 7.62306 15.9912C9.04679 16.0581 10.4625 15.7434 11.7239 15.0796C12.9852 14.4159 14.0463 13.4272 14.7974 12.2159C15.5485 11.0045 15.9623 9.61454 15.9961 8.18964C16.0299 6.76474 15.6824 5.35669 14.9895 4.11112C14.2967 2.86556 13.2836 1.82772 12.0552 1.10496C10.8267 0.382194 9.42746 0.000748913 8.00216 7.97545e-05V7.97545e-05Z" fill="white"/>
</g>
<defs>
<clipPath id="clip0">
<rect width="16" height="16" fill="white"/>
</clipPath>
</defs>
</svg>
