<svg width="24" height="24" viewBox="0 0 24 24" fill="none" xmlns="http://www.w3.org/2000/svg">
<path d="M22.9091 10.9091H13.0909V1.09091C13.0909 0.801582 12.976 0.524105 12.7714 0.31952C12.5668 0.114935 12.2893 0 12 0C11.7107 0 11.4332 0.114935 11.2286 0.31952C11.024 0.524105 10.9091 0.801582 10.9091 1.09091V10.9091H1.09091C0.801582 10.9091 0.524105 11.024 0.31952 11.2286C0.114935 11.4332 0 11.7107 0 12C0 12.2893 0.114935 12.5668 0.31952 12.7714C0.524105 12.976 0.801582 13.0909 1.09091 13.0909H10.9091V22.9091C10.9091 23.1984 11.024 23.4759 11.2286 23.6805C11.4332 23.8851 11.7107 24 12 24C12.2893 24 12.5668 23.8851 12.7714 23.6805C12.976 23.4759 13.0909 23.1984 13.0909 22.9091V13.0909H22.9091C23.1984 13.0909 23.4759 12.976 23.6805 12.7714C23.8851 12.5668 24 12.2893 24 12C24 11.7107 23.8851 11.4332 23.6805 11.2286C23.4759 11.024 23.1984 10.9091 22.9091 10.9091Z" fill="white"/>
</svg>
