<svg width="21" height="21" viewBox="0 0 21 21" fill="none" xmlns="http://www.w3.org/2000/svg">
<path fill-rule="evenodd" clip-rule="evenodd" d="M14.2836 12.6658L18.7669 17.1492C18.9245 17.3068 19.013 17.5207 19.0129 17.7436C19.0128 17.9666 18.9242 18.1803 18.7665 18.3379C18.6088 18.4955 18.395 18.584 18.172 18.5839C17.9491 18.5838 17.7353 18.4952 17.5777 18.3375L13.0944 13.8542C11.7542 14.8922 10.0688 15.3807 8.38118 15.2203C6.69356 15.0598 5.13044 14.2625 4.00981 12.9905C2.88919 11.7185 2.29524 10.0673 2.34879 8.37295C2.40234 6.67856 3.09937 5.06821 4.29808 3.86949C5.4968 2.67078 7.10714 1.97375 8.80153 1.9202C10.4959 1.86665 12.1471 2.4606 13.4191 3.58123C14.6911 4.70185 15.4884 6.26497 15.6489 7.9526C15.8093 9.64022 15.3208 11.3256 14.2827 12.6658H14.2836ZM9.01275 13.5833C10.3388 13.5833 11.6106 13.0565 12.5483 12.1189C13.486 11.1812 14.0127 9.90941 14.0127 8.58332C14.0127 7.25724 13.486 5.98547 12.5483 5.04779C11.6106 4.11011 10.3388 3.58332 9.01275 3.58332C7.68666 3.58332 6.41489 4.11011 5.47721 5.04779C4.53953 5.98547 4.01275 7.25724 4.01275 8.58332C4.01275 9.90941 4.53953 11.1812 5.47721 12.1189C6.41489 13.0565 7.68666 13.5833 9.01275 13.5833V13.5833Z" fill="white"/>
</svg>
