<svg width="20" height="20" viewBox="0 0 20 20" fill="none" xmlns="http://www.w3.org/2000/svg">
<path d="M10 9.16667C9.11595 9.16667 8.2681 8.81548 7.64298 8.19036C7.01786 7.56524 6.66667 6.71739 6.66667 5.83333C6.66667 4.94928 7.01786 4.10143 7.64298 3.47631C8.2681 2.85119 9.11595 2.5 10 2.5C10.8841 2.5 11.7319 2.85119 12.357 3.47631C12.9821 4.10143 13.3333 4.94928 13.3333 5.83333C13.3333 6.71739 12.9821 7.56524 12.357 8.19036C11.7319 8.81548 10.8841 9.16667 10 9.16667Z" stroke="white" stroke-width="2" stroke-linecap="round"/>
<path d="M3.33334 17.5V16.6667C3.33334 15.3406 3.86012 14.0688 4.7978 13.1311C5.73548 12.1935 7.00725 11.6667 8.33334 11.6667H11.6667C12.9928 11.6667 14.2645 12.1935 15.2022 13.1311C16.1399 14.0688 16.6667 15.3406 16.6667 16.6667V17.5" stroke="white" stroke-width="2" stroke-linecap="round"/>
</svg>
