<svg width="18" height="15" viewBox="0 0 18 15" fill="none" xmlns="http://www.w3.org/2000/svg">
<path d="M16.875 6.42934H3.5325L7.61625 1.75833C7.80721 1.53954 7.89908 1.25748 7.87165 0.974193C7.84422 0.690905 7.69974 0.429595 7.47 0.247748C7.24026 0.0659016 6.94407 -0.0215855 6.64659 0.00453334C6.34911 0.0306521 6.07471 0.168237 5.88375 0.387021L0.25875 6.81502C0.220906 6.86614 0.187064 6.91986 0.1575 6.97572C0.1575 7.02928 0.1575 7.06142 0.0787502 7.11499C0.0277579 7.23783 0.00105876 7.36859 0 7.50067C0.00105876 7.63275 0.0277579 7.76351 0.0787502 7.88635C0.0787502 7.93992 0.0787498 7.97206 0.1575 8.02562C0.187064 8.08148 0.220906 8.13519 0.25875 8.18632L5.88375 14.6143C5.98953 14.7353 6.12198 14.8325 6.2717 14.8992C6.42142 14.9658 6.58473 15.0003 6.75 15C7.01286 15.0005 7.2676 14.9133 7.47 14.7536C7.58392 14.6637 7.67808 14.5532 7.7471 14.4286C7.81612 14.3039 7.85864 14.1675 7.87223 14.0272C7.88581 13.8869 7.8702 13.7454 7.82627 13.6108C7.78235 13.4763 7.71098 13.3513 7.61625 13.243L3.5325 8.572H16.875C17.1734 8.572 17.4595 8.45913 17.6705 8.25822C17.8815 8.0573 18 7.7848 18 7.50067C18 7.21653 17.8815 6.94404 17.6705 6.74312C17.4595 6.54221 17.1734 6.42934 16.875 6.42934Z" fill="white"/>
</svg>
