<svg width="694" height="735" viewBox="0 0 694 735" fill="none" xmlns="http://www.w3.org/2000/svg">
<path d="M504.313 679.433C504.313 652.966 482.023 631.31 454.782 631.31H200.216C172.972 631.31 150.681 609.655 150.681 583.188C150.681 556.722 172.972 535.067 200.216 535.067H330.729" stroke="white" stroke-width="3.37898"/>
<path d="M380.195 530.802C278.412 558.111 173.382 497.384 146.106 395.457C118.833 293.529 179.468 188.352 281.263 161.041C383.052 133.73 488.074 194.453 515.349 296.384C542.625 398.316 481.997 503.487 380.195 530.802" fill="white"/>
<path d="M286.585 193.861C202.378 216.454 152.227 303.44 174.791 387.76C197.355 472.081 284.215 522.306 368.429 499.709C452.631 477.124 502.777 390.133 480.211 305.814C457.65 221.489 370.792 171.268 286.585 193.86V193.861ZM368.998 501.867C283.601 524.783 195.515 473.857 172.634 388.337C149.752 302.823 200.608 214.615 286.004 191.704C371.395 168.792 459.487 219.72 482.368 305.233C505.253 390.749 454.393 478.958 368.998 501.868" fill="#FF8540"/>
<path d="M295.811 228.339C230.586 245.839 191.744 313.212 209.216 378.524C226.694 443.835 293.975 482.73 359.193 465.231C424.414 447.732 463.263 380.357 445.782 315.05C428.31 249.737 361.03 210.835 295.811 228.339ZM359.777 467.39C293.365 485.208 224.861 445.603 207.064 379.105C189.269 312.603 228.824 243.998 295.231 226.181C361.635 208.363 430.141 247.971 447.942 314.47C465.736 380.971 426.179 449.569 359.777 467.39Z" fill="#FF8540"/>
<mask id="path-5-outside-1" maskUnits="userSpaceOnUse" x="48.8083" y="67.731" width="557" height="558" fill="black">
<rect fill="white" x="48.8083" y="67.731" width="557" height="558"/>
<path d="M566.034 397.004C564.582 397.894 563.009 398.571 561.364 399.015C557.981 399.923 554.405 399.815 551.083 398.703L436.025 360.158C435.197 359.879 434.391 359.541 433.611 359.147C421.385 352.941 410.424 339.611 406.956 326.73C404.214 316.517 404.679 295.075 414.406 281.488C414.757 280.99 415.14 280.509 415.545 280.051L495.182 189.928C496.906 187.978 499.035 186.429 501.42 185.39C503.804 184.35 506.387 183.845 508.987 183.91C511.587 183.975 514.141 184.608 516.471 185.765C518.801 186.922 520.851 188.575 522.476 190.608C565.978 245.076 584.898 315.735 574.379 384.456C573.983 387.029 573.032 389.485 571.59 391.653C570.149 393.82 568.253 395.646 566.034 397.004ZM560.064 437.781C534.704 502.745 483.061 554.471 418.353 579.705C417.749 579.953 417.127 580.158 416.504 580.322C414.151 580.953 411.695 581.095 409.285 580.739C406.876 580.384 404.564 579.538 402.493 578.254C400.422 576.971 398.636 575.276 397.244 573.275C395.851 571.274 394.883 569.008 394.398 566.618L370.201 447.569C370.029 446.713 369.919 445.846 369.872 444.975C369.122 431.263 375.175 415.088 384.587 405.652C394.193 396.02 413.702 388.146 427.419 389.49C428.024 389.553 428.633 389.641 429.228 389.764L547.005 413.775C549.555 414.293 551.961 415.363 554.054 416.911C556.147 418.459 557.876 420.446 559.12 422.735C560.361 425.023 561.089 427.555 561.252 430.154C561.415 432.752 561.009 435.356 560.064 437.781V437.781ZM277.388 107.968C278.745 105.747 280.569 103.85 282.734 102.408C284.898 100.967 287.351 100.015 289.921 99.6211C358.779 89.1251 429.347 108.05 483.52 151.537C485.548 153.166 487.196 155.219 488.348 157.552C489.501 159.886 490.131 162.443 490.194 165.045C490.259 167.647 489.755 170.232 488.716 172.618C487.678 175.004 486.13 177.134 484.182 178.857L393.327 259.37C392.668 259.945 391.979 260.468 391.253 260.948C386.988 263.73 382.101 265.878 376.734 267.323C367.573 269.775 357.793 269.967 349.881 267.853C339.686 265.13 321.368 254.001 314.484 238.779C314.23 238.222 314.004 237.653 313.813 237.074L275.691 122.95C274.864 120.48 274.587 117.859 274.881 115.271C275.174 112.682 276.03 110.19 277.388 107.968V107.968ZM284.801 246.007C284.979 246.859 285.089 247.723 285.136 248.594C285.885 262.316 279.838 278.491 270.427 287.924C264.288 294.073 253.795 299.794 243.688 302.505C237.963 304.042 232.543 304.575 227.59 304.083C226.98 304.023 226.374 303.933 225.774 303.811L107.999 279.805C105.45 279.285 103.046 278.213 100.955 276.664C98.8637 275.115 97.1358 273.128 95.8922 270.84C94.6486 268.553 93.9194 266.021 93.7556 263.421C93.5918 260.822 93.9975 258.218 94.9441 255.793C120.301 190.833 171.953 139.1 236.648 113.867C241.506 111.947 247.043 112.308 251.666 114.827C253.949 116.072 255.933 117.803 257.477 119.897C259.022 121.992 260.09 124.399 260.606 126.951L284.801 246.007ZM377.632 585.624C375.245 589.534 371.449 592.377 367.028 593.564C366.39 593.735 365.742 593.869 365.089 593.966C296.238 604.455 225.671 585.524 171.493 542.041C169.465 540.411 167.817 538.357 166.664 536.023C165.511 533.69 164.881 531.132 164.818 528.528C164.754 525.926 165.259 523.34 166.298 520.954C167.336 518.567 168.884 516.437 170.831 514.712L261.699 434.211C262.348 433.629 263.041 433.098 263.771 432.623C275.289 425.09 292.581 422.372 305.132 425.716C315.346 428.451 333.642 439.578 340.532 454.762C340.793 455.324 341.017 455.904 341.212 456.493L379.326 570.637C380.999 575.634 380.376 581.111 377.632 585.624ZM146.022 509.674C143.42 509.609 140.863 508.974 138.532 507.814C136.2 506.655 134.15 504.999 132.525 502.962C89.0251 448.496 70.1123 377.837 80.6379 309.114C81.0329 306.54 81.9844 304.084 83.4259 301.917C84.8675 299.75 86.7643 297.924 88.9837 296.567C91.2051 295.217 93.6931 294.366 96.2754 294.074C98.8578 293.782 101.473 294.055 103.939 294.875L218.994 333.425C219.821 333.699 220.62 334.037 221.394 334.428C233.627 340.632 244.591 353.958 248.058 366.843C250.795 377.075 250.326 398.517 240.629 412.083C240.272 412.575 239.885 413.057 239.48 413.524L159.829 503.655C158.106 505.607 155.977 507.157 153.592 508.197C151.207 509.237 148.623 509.741 146.022 509.675V509.674ZM258.231 87.9262C115.465 126.241 30.7389 273.187 68.9939 416.147C107.251 559.106 253.997 643.952 396.765 605.642C539.527 567.331 624.257 420.387 586.002 277.427C547.745 134.465 400.994 49.6243 258.23 87.9275"/>
</mask>
<path d="M566.034 397.004C564.582 397.894 563.009 398.571 561.364 399.015C557.981 399.923 554.405 399.815 551.083 398.703L436.025 360.158C435.197 359.879 434.391 359.541 433.611 359.147C421.385 352.941 410.424 339.611 406.956 326.73C404.214 316.517 404.679 295.075 414.406 281.488C414.757 280.99 415.14 280.509 415.545 280.051L495.182 189.928C496.906 187.978 499.035 186.429 501.42 185.39C503.804 184.35 506.387 183.845 508.987 183.91C511.587 183.975 514.141 184.608 516.471 185.765C518.801 186.922 520.851 188.575 522.476 190.608C565.978 245.076 584.898 315.735 574.379 384.456C573.983 387.029 573.032 389.485 571.59 391.653C570.149 393.82 568.253 395.646 566.034 397.004ZM560.064 437.781C534.704 502.745 483.061 554.471 418.353 579.705C417.749 579.953 417.127 580.158 416.504 580.322C414.151 580.953 411.695 581.095 409.285 580.739C406.876 580.384 404.564 579.538 402.493 578.254C400.422 576.971 398.636 575.276 397.244 573.275C395.851 571.274 394.883 569.008 394.398 566.618L370.201 447.569C370.029 446.713 369.919 445.846 369.872 444.975C369.122 431.263 375.175 415.088 384.587 405.652C394.193 396.02 413.702 388.146 427.419 389.49C428.024 389.553 428.633 389.641 429.228 389.764L547.005 413.775C549.555 414.293 551.961 415.363 554.054 416.911C556.147 418.459 557.876 420.446 559.12 422.735C560.361 425.023 561.089 427.555 561.252 430.154C561.415 432.752 561.009 435.356 560.064 437.781V437.781ZM277.388 107.968C278.745 105.747 280.569 103.85 282.734 102.408C284.898 100.967 287.351 100.015 289.921 99.6211C358.779 89.1251 429.347 108.05 483.52 151.537C485.548 153.166 487.196 155.219 488.348 157.552C489.501 159.886 490.131 162.443 490.194 165.045C490.259 167.647 489.755 170.232 488.716 172.618C487.678 175.004 486.13 177.134 484.182 178.857L393.327 259.37C392.668 259.945 391.979 260.468 391.253 260.948C386.988 263.73 382.101 265.878 376.734 267.323C367.573 269.775 357.793 269.967 349.881 267.853C339.686 265.13 321.368 254.001 314.484 238.779C314.23 238.222 314.004 237.653 313.813 237.074L275.691 122.95C274.864 120.48 274.587 117.859 274.881 115.271C275.174 112.682 276.03 110.19 277.388 107.968V107.968ZM284.801 246.007C284.979 246.859 285.089 247.723 285.136 248.594C285.885 262.316 279.838 278.491 270.427 287.924C264.288 294.073 253.795 299.794 243.688 302.505C237.963 304.042 232.543 304.575 227.59 304.083C226.98 304.023 226.374 303.933 225.774 303.811L107.999 279.805C105.45 279.285 103.046 278.213 100.955 276.664C98.8637 275.115 97.1358 273.128 95.8922 270.84C94.6486 268.553 93.9194 266.021 93.7556 263.421C93.5918 260.822 93.9975 258.218 94.9441 255.793C120.301 190.833 171.953 139.1 236.648 113.867C241.506 111.947 247.043 112.308 251.666 114.827C253.949 116.072 255.933 117.803 257.477 119.897C259.022 121.992 260.09 124.399 260.606 126.951L284.801 246.007ZM377.632 585.624C375.245 589.534 371.449 592.377 367.028 593.564C366.39 593.735 365.742 593.869 365.089 593.966C296.238 604.455 225.671 585.524 171.493 542.041C169.465 540.411 167.817 538.357 166.664 536.023C165.511 533.69 164.881 531.132 164.818 528.528C164.754 525.926 165.259 523.34 166.298 520.954C167.336 518.567 168.884 516.437 170.831 514.712L261.699 434.211C262.348 433.629 263.041 433.098 263.771 432.623C275.289 425.09 292.581 422.372 305.132 425.716C315.346 428.451 333.642 439.578 340.532 454.762C340.793 455.324 341.017 455.904 341.212 456.493L379.326 570.637C380.999 575.634 380.376 581.111 377.632 585.624ZM146.022 509.674C143.42 509.609 140.863 508.974 138.532 507.814C136.2 506.655 134.15 504.999 132.525 502.962C89.0251 448.496 70.1123 377.837 80.6379 309.114C81.0329 306.54 81.9844 304.084 83.4259 301.917C84.8675 299.75 86.7643 297.924 88.9837 296.567C91.2051 295.217 93.6931 294.366 96.2754 294.074C98.8578 293.782 101.473 294.055 103.939 294.875L218.994 333.425C219.821 333.699 220.62 334.037 221.394 334.428C233.627 340.632 244.591 353.958 248.058 366.843C250.795 377.075 250.326 398.517 240.629 412.083C240.272 412.575 239.885 413.057 239.48 413.524L159.829 503.655C158.106 505.607 155.977 507.157 153.592 508.197C151.207 509.237 148.623 509.741 146.022 509.675V509.674ZM258.231 87.9262C115.465 126.241 30.7389 273.187 68.9939 416.147C107.251 559.106 253.997 643.952 396.765 605.642C539.527 567.331 624.257 420.387 586.002 277.427C547.745 134.465 400.994 49.6243 258.23 87.9275" fill="white"/>
<path d="M566.034 397.004L560.814 388.475L560.809 388.478L566.034 397.004ZM561.364 399.015L563.959 408.672L563.967 408.67L561.364 399.015ZM551.083 398.703L547.907 408.185L547.908 408.185L551.083 398.703ZM436.025 360.158L432.821 369.631L432.834 369.636L432.848 369.641L436.025 360.158ZM433.611 359.147L429.084 368.064L429.095 368.07L429.107 368.076L433.611 359.147ZM406.956 326.73L397.298 329.323L397.3 329.329L406.956 326.73ZM414.406 281.488L422.537 287.309L422.557 287.281L422.577 287.253L414.406 281.488ZM415.545 280.051L408.051 273.429L408.049 273.432L415.545 280.051ZM495.182 189.928L487.691 183.304L487.689 183.306L495.182 189.928ZM522.476 190.608L530.29 184.367L530.287 184.364L522.476 190.608ZM574.379 384.456L584.263 385.976L584.264 385.969L574.379 384.456ZM571.59 391.653L579.917 397.19L571.59 391.653ZM418.353 579.705L414.72 570.388L414.633 570.422L414.546 570.458L418.353 579.705ZM416.504 580.322L413.953 570.653L413.934 570.658L413.914 570.664L416.504 580.322ZM394.398 566.618L404.198 564.629L404.197 564.626L394.398 566.618ZM370.201 447.569L360.396 449.537L360.399 449.549L360.401 449.561L370.201 447.569ZM369.872 444.975L379.858 444.438L379.857 444.429L369.872 444.975ZM384.587 405.652L391.667 412.715L391.668 412.714L384.587 405.652ZM427.419 389.49L428.462 379.544L428.428 379.541L428.394 379.537L427.419 389.49ZM429.228 389.764L427.203 399.557L427.216 399.56L427.23 399.562L429.228 389.764ZM547.005 413.775L545.008 423.574L545.015 423.575L547.005 413.775ZM559.12 422.735L567.91 417.966L567.905 417.957L559.12 422.735ZM289.921 99.6211L288.414 89.7353L288.404 89.7368L289.921 99.6211ZM483.52 151.537L489.784 143.741L489.78 143.738L483.52 151.537ZM490.194 165.045L480.197 165.288L480.197 165.295L490.194 165.045ZM484.182 178.857L477.556 171.368L477.55 171.373L484.182 178.857ZM393.327 259.37L399.899 266.908L399.929 266.881L399.959 266.854L393.327 259.37ZM391.253 260.948L396.717 269.324L396.746 269.305L396.775 269.286L391.253 260.948ZM376.734 267.323L379.32 276.983L379.327 276.981L379.333 276.979L376.734 267.323ZM349.881 267.853L352.463 258.192L352.461 258.191L349.881 267.853ZM314.484 238.779L323.595 234.658L323.59 234.647L323.585 234.636L314.484 238.779ZM313.813 237.074L323.307 233.935L323.302 233.92L323.297 233.906L313.813 237.074ZM275.691 122.95L285.176 119.782L285.173 119.776L275.691 122.95ZM284.801 246.007L275.001 247.999L275.007 248.028L275.013 248.057L284.801 246.007ZM285.136 248.594L275.15 249.128L275.15 249.14L285.136 248.594ZM270.427 287.924L277.504 294.99L277.507 294.987L270.427 287.924ZM243.688 302.505L241.097 292.846L241.096 292.847L243.688 302.505ZM227.59 304.083L228.579 294.132L228.57 294.131L228.562 294.13L227.59 304.083ZM225.774 303.811L223.776 313.61L223.789 313.612L225.774 303.811ZM107.999 279.805L105.998 289.603L106.002 289.604L107.999 279.805ZM94.9441 255.793L85.6287 252.156L85.6283 252.157L94.9441 255.793ZM236.648 113.867L240.282 123.183L240.303 123.175L240.324 123.166L236.648 113.867ZM251.666 114.827L256.453 106.048L256.452 106.047L251.666 114.827ZM260.606 126.951L250.805 128.935L250.806 128.942L260.606 126.951ZM377.632 585.624L386.167 590.836L386.172 590.827L386.177 590.819L377.632 585.624ZM367.028 593.564L369.614 603.224L369.623 603.222L367.028 593.564ZM365.089 593.966L363.628 584.073L363.605 584.076L363.582 584.08L365.089 593.966ZM171.493 542.041L165.228 549.836L165.234 549.84L171.493 542.041ZM164.818 528.528L174.815 528.286L174.814 528.283L164.818 528.528ZM170.831 514.712L177.462 522.197L177.462 522.197L170.831 514.712ZM261.699 434.211L268.33 441.696L268.352 441.676L268.374 441.657L261.699 434.211ZM263.771 432.623L269.221 441.008L269.233 441L269.245 440.992L263.771 432.623ZM305.132 425.716L307.718 416.056L307.707 416.053L305.132 425.716ZM340.532 454.762L331.426 458.895L331.445 458.936L331.464 458.977L340.532 454.762ZM341.212 456.493L331.72 459.639L331.723 459.65L331.727 459.661L341.212 456.493ZM379.326 570.637L369.841 573.804L369.843 573.811L379.326 570.637ZM146.022 509.674H156.022V499.922L146.273 499.677L146.022 509.674ZM132.525 502.962L140.343 496.726L140.339 496.722L132.525 502.962ZM80.6379 309.114L70.7536 307.597L70.7532 307.6L80.6379 309.114ZM88.9837 296.567L83.7885 288.023L83.7783 288.029L83.7681 288.035L88.9837 296.567ZM103.939 294.875L107.116 285.393L107.105 285.39L107.095 285.386L103.939 294.875ZM218.994 333.425L215.817 342.906L215.831 342.911L215.845 342.916L218.994 333.425ZM221.394 334.428L225.918 325.509L225.91 325.505L225.901 325.501L221.394 334.428ZM248.058 366.843L257.719 364.259L257.717 364.251L257.715 364.244L248.058 366.843ZM240.629 412.083L248.724 417.955L248.744 417.927L248.765 417.898L240.629 412.083ZM239.48 413.524L246.973 420.146L247.007 420.108L247.04 420.07L239.48 413.524ZM159.829 503.655L152.336 497.033L152.333 497.036L159.829 503.655ZM146.022 509.675H136.022V519.424L145.768 519.672L146.022 509.675ZM68.9939 416.147L59.3338 418.732L59.3338 418.732L68.9939 416.147ZM396.765 605.642L399.357 615.301L399.357 615.301L396.765 605.642ZM586.002 277.427L595.662 274.842L595.662 274.842L586.002 277.427ZM560.809 388.478C560.172 388.868 559.483 389.165 558.762 389.359L563.967 408.67C566.535 407.978 568.991 406.92 571.26 405.53L560.809 388.478ZM558.77 389.357C557.285 389.756 555.716 389.708 554.258 389.22L547.908 408.185C553.094 409.922 558.677 410.091 563.959 408.672L558.77 389.357ZM554.26 389.22L439.201 350.676L432.848 369.641L547.907 408.185L554.26 389.22ZM439.229 350.686C438.847 350.556 438.474 350.4 438.115 350.219L429.107 368.076C430.307 368.681 431.548 369.201 432.821 369.631L439.229 350.686ZM438.138 350.231C428.359 345.266 419.32 334.187 416.612 324.13L397.3 329.329C401.528 345.034 414.411 360.615 429.084 368.064L438.138 350.231ZM416.614 324.136C415.64 320.51 415.062 313.912 415.935 306.553C416.807 299.205 418.991 292.262 422.537 287.309L406.275 275.667C400.094 284.301 397.181 294.872 396.075 304.195C394.969 313.507 395.53 322.737 397.298 329.323L416.614 324.136ZM422.577 287.253C422.704 287.072 422.859 286.876 423.041 286.67L408.049 273.432C407.421 274.143 406.811 274.907 406.235 275.723L422.577 287.253ZM423.038 286.673L502.676 196.55L487.689 183.306L408.051 273.429L423.038 286.673ZM502.674 196.552C503.432 195.694 504.369 195.013 505.416 194.557L497.424 176.223C493.702 177.846 490.38 180.262 487.691 183.304L502.674 196.552ZM505.416 194.557C506.463 194.1 507.597 193.879 508.738 193.907L509.236 173.913C505.177 173.812 501.146 174.601 497.424 176.223L505.416 194.557ZM508.738 193.907C509.879 193.935 511 194.213 512.024 194.721L520.919 176.808C517.282 175.002 513.295 174.014 509.236 173.913L508.738 193.907ZM512.024 194.721C513.048 195.23 513.949 195.956 514.665 196.852L530.287 184.364C527.752 181.193 524.555 178.614 520.919 176.808L512.024 194.721ZM514.662 196.848C556.427 249.142 574.589 316.991 564.494 382.943L584.264 385.969C595.207 314.479 575.529 241.011 530.29 184.367L514.662 196.848ZM564.495 382.936C564.32 384.074 563.9 385.159 563.263 386.115L579.917 397.19C582.164 393.812 583.646 389.985 584.263 385.976L564.495 382.936ZM563.263 386.115C562.627 387.072 561.791 387.877 560.814 388.475L571.255 405.533C574.715 403.415 577.671 400.568 579.917 397.19L563.263 386.115ZM550.748 434.145C526.401 496.517 476.81 546.175 414.72 570.388L421.986 589.021C489.312 562.767 543.008 508.973 569.379 441.418L550.748 434.145ZM414.546 570.458C414.388 570.523 414.189 570.591 413.953 570.653L419.055 589.991C420.066 589.725 421.111 589.384 422.16 588.952L414.546 570.458ZM413.914 570.664C412.881 570.94 411.803 571.003 410.745 570.847L407.825 590.632C411.586 591.187 415.422 590.966 419.094 589.981L413.914 570.664ZM410.745 570.847C409.688 570.691 408.672 570.319 407.762 569.755L397.224 586.754C400.456 588.757 404.063 590.077 407.825 590.632L410.745 570.847ZM407.762 569.755C406.852 569.191 406.066 568.445 405.452 567.564L389.035 578.986C391.206 582.107 393.993 584.75 397.224 586.754L407.762 569.755ZM405.452 567.564C404.839 566.682 404.412 565.684 404.198 564.629L384.598 568.607C385.354 572.333 386.864 575.865 389.035 578.986L405.452 567.564ZM404.197 564.626L380 445.577L360.401 449.561L384.598 568.61L404.197 564.626ZM380.005 445.601C379.928 445.217 379.879 444.829 379.858 444.438L359.887 445.511C359.959 446.864 360.13 448.209 360.396 449.537L380.005 445.601ZM379.857 444.429C379.257 433.452 384.327 420.073 391.667 412.715L377.507 398.59C366.022 410.103 358.988 429.074 359.887 445.521L379.857 444.429ZM391.668 412.714C395.219 409.153 401.175 405.44 408.059 402.785C414.981 400.116 421.659 398.973 426.444 399.442L428.394 379.537C419.462 378.662 409.527 380.784 400.864 384.124C392.163 387.479 383.562 392.519 377.506 398.591L391.668 412.714ZM426.376 399.435C426.727 399.472 426.999 399.515 427.203 399.557L431.253 379.971C430.267 379.767 429.322 379.634 428.462 379.544L426.376 399.435ZM427.23 399.562L545.008 423.574L549.003 403.977L431.225 379.966L427.23 399.562ZM545.015 423.575C546.133 423.802 547.189 424.272 548.108 424.951L560 408.871C556.733 406.455 552.977 404.784 548.995 403.975L545.015 423.575ZM548.108 424.951C549.027 425.631 549.787 426.505 550.335 427.512L567.905 417.957C565.964 414.388 563.266 411.287 560 408.871L548.108 424.951ZM550.33 427.503C550.878 428.513 551.199 429.631 551.271 430.78L571.232 429.527C570.978 425.478 569.845 421.533 567.91 417.966L550.33 427.503ZM551.271 430.78C551.343 431.928 551.164 433.078 550.747 434.149L569.381 441.413C570.854 437.633 571.486 433.577 571.232 429.527L551.271 430.78ZM285.922 113.181C286.52 112.201 287.324 111.366 288.277 110.731L277.19 94.0852C273.814 96.3341 270.969 99.2932 268.854 102.755L285.922 113.181ZM288.277 110.731C289.229 110.097 290.308 109.679 291.437 109.505L288.404 89.7368C284.394 90.352 280.567 91.8363 277.19 94.0852L288.277 110.731ZM291.427 109.507C357.527 99.4314 425.276 117.605 477.26 159.335L489.78 143.738C433.418 98.4939 360.031 78.8188 288.414 89.7353L291.427 109.507ZM477.257 159.332C478.149 160.049 478.875 160.953 479.383 161.982L497.314 153.123C495.517 149.485 492.947 146.283 489.784 143.741L477.257 159.332ZM479.383 161.982C479.891 163.011 480.169 164.139 480.197 165.288L500.191 164.803C500.093 160.747 499.111 156.761 497.314 153.123L479.383 161.982ZM480.197 165.295C480.226 166.441 480.004 167.578 479.547 168.627L497.885 176.609C499.506 172.887 500.293 168.854 500.191 164.796L480.197 165.295ZM479.547 168.627C479.09 169.676 478.41 170.612 477.556 171.368L490.809 186.346C493.85 183.656 496.265 180.332 497.885 176.609L479.547 168.627ZM477.55 171.373L386.695 251.886L399.959 266.854L490.814 186.341L477.55 171.373ZM386.756 251.832C386.436 252.111 386.099 252.368 385.732 252.61L396.775 269.286C397.859 268.568 398.9 267.778 399.899 266.908L386.756 251.832ZM385.79 252.572C382.48 254.732 378.574 256.472 374.134 257.667L379.333 276.979C385.628 275.285 391.496 272.729 396.717 269.324L385.79 252.572ZM374.148 257.663C366.411 259.734 358.431 259.787 352.463 258.192L347.299 277.514C357.154 280.147 368.736 279.816 379.32 276.983L374.148 257.663ZM352.461 258.191C348.85 257.227 342.86 254.433 336.933 249.997C331.016 245.569 326.104 240.205 323.595 234.658L305.372 242.9C309.748 252.575 317.437 260.387 324.949 266.009C332.451 271.624 340.717 275.756 347.301 277.514L352.461 258.191ZM323.585 234.636C323.467 234.376 323.375 234.142 323.307 233.935L304.318 240.213C304.632 241.164 304.994 242.069 305.382 242.922L323.585 234.636ZM323.297 233.906L285.176 119.782L266.206 126.118L304.328 240.242L323.297 233.906ZM285.173 119.776C284.81 118.689 284.688 117.536 284.817 116.396L264.944 114.145C264.487 118.182 264.918 122.271 266.208 126.125L285.173 119.776ZM284.817 116.396C284.946 115.257 285.323 114.161 285.92 113.185L268.857 102.751C266.737 106.218 265.402 110.107 264.944 114.145L284.817 116.396ZM275.013 248.057C275.082 248.387 275.129 248.743 275.15 249.128L295.121 248.061C295.049 246.703 294.876 245.331 294.588 243.957L275.013 248.057ZM275.15 249.14C275.751 260.131 270.683 273.509 263.348 280.861L277.507 294.987C288.993 283.473 296.02 264.502 295.121 248.048L275.15 249.14ZM263.351 280.859C258.685 285.532 249.855 290.497 241.097 292.846L246.279 312.163C257.735 309.09 269.892 302.614 277.504 294.99L263.351 280.859ZM241.096 292.847C236.316 294.13 232.121 294.484 228.579 294.132L226.602 314.034C232.965 314.666 239.611 313.953 246.281 312.163L241.096 292.847ZM228.562 294.13C228.292 294.104 228.024 294.064 227.758 294.01L223.789 313.612C224.724 313.802 225.669 313.943 226.618 314.036L228.562 294.13ZM227.771 294.013L109.996 270.007L106.002 289.604L223.776 313.61L227.771 294.013ZM110 270.007C108.881 269.779 107.825 269.308 106.906 268.627L95.004 284.7C98.2671 287.117 102.019 288.79 105.998 289.603L110 270.007ZM106.906 268.627C105.987 267.947 105.226 267.072 104.678 266.064L87.1066 275.617C89.0458 279.184 91.741 282.284 95.004 284.7L106.906 268.627ZM104.678 266.064C104.13 265.056 103.808 263.939 103.736 262.793L83.7754 264.05C84.0307 268.102 85.1674 272.05 87.1066 275.617L104.678 266.064ZM103.736 262.793C103.664 261.646 103.843 260.497 104.26 259.428L85.6283 252.157C84.1524 255.939 83.5201 259.998 83.7754 264.05L103.736 262.793ZM104.26 259.429C128.605 197.061 178.204 147.396 240.282 123.183L233.015 104.55C165.702 130.804 111.997 184.605 85.6287 252.156L104.26 259.429ZM240.324 123.166C242.384 122.352 244.824 122.487 246.88 123.608L256.452 106.047C249.263 102.129 240.628 101.541 232.972 104.567L240.324 123.166ZM246.878 123.607C247.879 124.153 248.75 124.912 249.429 125.832L265.525 113.962C263.115 110.694 260.019 107.992 256.453 106.048L246.878 123.607ZM249.429 125.832C250.108 126.753 250.578 127.812 250.805 128.935L270.407 124.966C269.602 120.986 267.935 117.23 265.525 113.962L249.429 125.832ZM250.806 128.942L275.001 247.999L294.6 244.016L270.406 124.959L250.806 128.942ZM369.098 580.412C368.045 582.136 366.374 583.385 364.433 583.907L369.623 603.222C376.523 601.368 382.444 596.932 386.167 590.836L369.098 580.412ZM364.442 583.905C364.174 583.976 363.902 584.032 363.628 584.073L366.549 603.859C367.582 603.706 368.605 603.494 369.614 603.224L364.442 583.905ZM363.582 584.08C297.491 594.149 229.743 575.969 177.752 534.242L165.234 549.84C221.6 595.079 294.985 614.762 366.595 603.852L363.582 584.08ZM177.758 534.247C176.865 533.529 176.138 532.624 175.63 531.594L157.698 540.453C159.496 544.091 162.065 547.293 165.228 549.836L177.758 534.247ZM175.63 531.594C175.121 530.565 174.842 529.435 174.815 528.286L154.82 528.771C154.919 532.828 155.901 536.814 157.698 540.453L175.63 531.594ZM174.814 528.283C174.786 527.135 175.009 525.996 175.467 524.944L157.128 516.963C155.508 520.685 154.721 524.716 154.821 528.774L174.814 528.283ZM175.467 524.944C175.924 523.893 176.606 522.955 177.462 522.197L164.2 507.226C161.161 509.918 158.748 513.241 157.128 516.963L175.467 524.944ZM177.462 522.197L268.33 441.696L255.068 426.725L164.2 507.226L177.462 522.197ZM268.374 441.657C268.639 441.419 268.922 441.202 269.221 441.008L258.322 424.238C257.159 424.994 256.056 425.839 255.024 426.764L268.374 441.657ZM269.245 440.992C278.425 434.987 292.797 432.778 302.557 435.379L307.707 416.053C292.366 411.966 272.152 415.192 258.297 424.255L269.245 440.992ZM302.546 435.376C306.17 436.346 312.162 439.144 318.088 443.578C324.004 448.004 328.915 453.361 331.426 458.895L349.638 450.63C345.259 440.98 337.577 433.181 330.069 427.564C322.571 421.953 314.307 417.82 307.718 416.056L302.546 435.376ZM331.464 458.977C331.537 459.136 331.624 459.351 331.72 459.639L350.704 453.348C350.409 452.457 350.049 451.513 349.6 450.547L331.464 458.977ZM331.727 459.661L369.841 573.804L388.811 567.47L350.697 453.326L331.727 459.661ZM369.843 573.811C370.576 576.001 370.311 578.417 369.087 580.43L386.177 590.819C390.441 583.804 391.422 575.268 388.809 567.462L369.843 573.811ZM146.273 499.677C145.131 499.648 144.009 499.37 142.984 498.86L134.079 516.768C137.718 518.578 141.709 519.569 145.771 519.671L146.273 499.677ZM142.984 498.86C141.96 498.351 141.058 497.623 140.343 496.726L124.708 509.199C127.242 512.375 130.441 514.959 134.079 516.768L142.984 498.86ZM140.339 496.722C98.5766 444.431 80.421 376.583 90.5227 310.628L70.7532 307.6C59.8035 379.092 79.4736 452.561 124.712 509.203L140.339 496.722ZM90.5222 310.631C90.6966 309.495 91.1166 308.411 91.7522 307.455L75.0997 296.379C72.8522 299.758 71.3692 303.586 70.7536 307.597L90.5222 310.631ZM91.7522 307.455C92.3877 306.5 93.2231 305.696 94.1994 305.099L83.7681 288.035C80.3054 290.152 77.3473 293 75.0997 296.379L91.7522 307.455ZM94.179 305.112C95.1609 304.515 96.2598 304.139 97.3998 304.01L95.1511 284.137C91.1264 284.593 87.2493 285.919 83.7885 288.023L94.179 305.112ZM97.3998 304.01C98.5397 303.881 99.6941 304.002 100.783 304.364L107.095 285.386C103.251 284.108 99.1759 283.682 95.1511 284.137L97.3998 304.01ZM100.762 304.357L215.817 342.906L222.17 323.943L107.116 285.393L100.762 304.357ZM215.845 342.916C216.169 343.023 216.515 343.167 216.888 343.355L225.901 325.501C224.725 324.907 223.473 324.374 222.142 323.933L215.845 342.916ZM216.871 343.346C226.655 348.309 235.695 359.383 238.402 369.442L257.715 364.244C253.486 348.533 240.598 332.955 225.918 325.509L216.871 343.346ZM238.398 369.427C239.372 373.069 239.948 379.676 239.076 387.037C238.205 394.388 236.026 401.327 232.494 406.268L248.765 417.898C254.929 409.274 257.833 398.708 258.937 389.389C260.04 380.079 259.482 370.849 257.719 364.259L238.398 369.427ZM232.534 406.212C232.375 406.431 232.172 406.687 231.92 406.978L247.04 420.07C247.597 419.427 248.17 418.719 248.724 417.955L232.534 406.212ZM231.987 406.902L152.336 497.033L167.323 510.277L246.973 420.146L231.987 406.902ZM152.333 497.036C151.576 497.894 150.641 498.574 149.595 499.03L157.589 517.363C161.313 515.739 164.636 513.319 167.325 510.274L152.333 497.036ZM149.595 499.03C148.549 499.486 147.416 499.707 146.277 499.678L145.768 519.672C149.83 519.775 153.864 518.987 157.589 517.363L149.595 499.03ZM156.022 509.675V509.674H136.022V509.675H156.022ZM255.639 78.268C107.532 118.016 19.6546 270.449 59.3338 418.732L78.654 413.562C41.8232 275.924 123.399 134.466 260.823 97.5845L255.639 78.268ZM59.3338 418.732C99.0168 567.018 251.24 655.046 399.357 615.301L394.173 595.984C256.753 632.859 115.486 551.195 78.654 413.562L59.3338 418.732ZM399.357 615.301C547.46 575.556 635.342 423.125 595.662 274.842L576.342 280.012C613.173 417.65 531.594 559.107 394.173 595.984L399.357 615.301ZM595.662 274.842C555.979 126.553 403.75 38.5311 255.638 78.2691L260.821 97.5859C398.238 60.7174 539.51 142.377 576.342 280.012L595.662 274.842Z" fill="#FF8540" mask="url(#path-5-outside-1)"/>
<path d="M381.293 547.828C380.436 548.057 379.524 547.937 378.757 547.494C377.989 547.05 377.429 546.32 377.198 545.463L353.15 455.587C353.034 455.162 353.004 454.719 353.061 454.282C353.117 453.845 353.259 453.424 353.479 453.043C353.699 452.662 353.991 452.327 354.341 452.06C354.69 451.792 355.088 451.596 355.513 451.483C356.37 451.254 357.282 451.374 358.05 451.818C358.818 452.262 359.379 452.993 359.609 453.851L383.657 543.724C383.887 544.582 383.767 545.497 383.323 546.266C382.88 547.036 382.15 547.598 381.293 547.828ZM299.483 242.082C298.626 242.312 297.712 242.192 296.943 241.748C296.174 241.305 295.613 240.573 295.382 239.715L271.336 149.838C271.105 148.98 271.224 148.066 271.667 147.295C272.109 146.525 272.839 145.963 273.696 145.731C274.554 145.503 275.467 145.623 276.237 146.067C277.006 146.511 277.568 147.242 277.801 148.101L301.849 237.978C302.327 239.768 301.267 241.603 299.483 242.082ZM528.269 400.648C528.04 401.507 527.48 402.24 526.712 402.685C525.943 403.13 525.03 403.252 524.172 403.023L434.416 378.941C433.992 378.828 433.594 378.633 433.245 378.366C432.896 378.099 432.603 377.766 432.383 377.385C432.164 377.005 432.021 376.584 431.964 376.149C431.907 375.713 431.936 375.27 432.05 374.845C432.162 374.419 432.358 374.019 432.625 373.669C432.892 373.318 433.225 373.024 433.606 372.803C433.986 372.581 434.407 372.437 434.843 372.379C435.28 372.321 435.723 372.349 436.149 372.463L525.899 396.551C526.324 396.664 526.722 396.859 527.072 397.126C527.421 397.393 527.714 397.727 527.934 398.108C528.154 398.489 528.296 398.909 528.354 399.345C528.411 399.782 528.382 400.225 528.268 400.65L528.269 400.648ZM222.936 318.729C222.823 319.154 222.627 319.552 222.36 319.902C222.093 320.251 221.76 320.544 221.379 320.765C220.999 320.985 220.579 321.128 220.144 321.186C219.708 321.243 219.265 321.214 218.841 321.1L129.085 297.015C128.661 296.902 128.262 296.706 127.914 296.439C127.565 296.172 127.272 295.838 127.052 295.458C126.831 295.077 126.688 294.657 126.63 294.221C126.572 293.785 126.601 293.341 126.714 292.916C126.945 292.058 127.507 291.326 128.275 290.881C129.044 290.435 129.958 290.313 130.816 290.541L220.566 314.628C220.991 314.741 221.39 314.936 221.739 315.203C222.089 315.47 222.382 315.804 222.602 316.185C222.822 316.566 222.965 316.987 223.022 317.423C223.08 317.86 223.05 318.303 222.936 318.729ZM474.467 199.601C474.778 199.912 475.025 200.281 475.193 200.688C475.361 201.095 475.448 201.531 475.448 201.971C475.448 202.411 475.361 202.847 475.193 203.254C475.025 203.661 474.778 204.031 474.467 204.342L408.758 270.133C408.448 270.444 408.079 270.691 407.674 270.86C407.268 271.028 406.833 271.115 406.394 271.116C405.506 271.116 404.655 270.764 404.027 270.136C403.4 269.509 403.046 268.657 403.046 267.769C403.045 266.88 403.397 266.028 404.024 265.399L469.73 199.603C470.358 198.975 471.21 198.622 472.098 198.622C472.986 198.621 473.838 198.973 474.467 199.601ZM250.949 423.421C251.577 424.051 251.929 424.905 251.929 425.795C251.929 426.685 251.577 427.539 250.949 428.17L185.248 493.958C184.619 494.586 183.766 494.939 182.877 494.939C181.988 494.939 181.135 494.586 180.506 493.958C180.196 493.647 179.951 493.279 179.783 492.873C179.616 492.468 179.53 492.033 179.531 491.594C179.531 491.155 179.618 490.721 179.787 490.316C179.955 489.911 180.202 489.543 180.512 489.233L246.215 423.425C246.843 422.796 247.694 422.443 248.581 422.443C249.469 422.442 250.32 422.794 250.949 423.421Z" fill="#FF8540"/>
<path d="M310.823 284.476C276.514 293.682 256.08 329.118 265.27 363.483C274.461 397.835 309.861 418.307 344.174 409.099C378.486 399.894 398.916 364.443 389.726 330.095C380.529 295.73 345.137 275.269 310.823 284.476V284.476ZM345.353 413.511C308.615 423.372 270.712 401.453 260.87 364.664C251.024 327.873 272.907 289.922 309.644 280.065C346.384 270.208 384.284 292.124 394.129 328.91C403.974 365.696 382.094 403.655 345.353 413.511" fill="#FF8540"/>
<path d="M334.641 373.486C319.934 377.435 304.769 368.663 300.828 353.948C296.886 339.217 305.652 324.03 320.351 320.08C335.053 316.131 350.225 324.907 354.166 339.631C358.109 354.349 349.347 369.541 334.64 373.487" fill="#FF8540"/>
<path d="M330.769 358.986L315.319 350.052L324.232 334.586L339.686 343.519L330.769 358.987" fill="white"/>
<path d="M320.483 298.934C320.866 300.368 320.665 301.896 319.923 303.182C319.182 304.468 317.961 305.406 316.529 305.791C315.82 305.981 315.081 306.029 314.353 305.933C313.626 305.837 312.924 305.598 312.289 305.23C311.654 304.863 311.097 304.373 310.651 303.789C310.205 303.206 309.878 302.54 309.689 301.83C309.306 300.397 309.506 298.87 310.246 297.585C310.986 296.3 312.205 295.361 313.635 294.975C315.068 294.591 316.593 294.793 317.877 295.535C319.161 296.278 320.098 297.5 320.483 298.934V298.934ZM375.274 353.807C376.707 354.19 377.928 355.127 378.671 356.413C379.413 357.698 379.615 359.226 379.232 360.66C378.85 362.095 377.914 363.318 376.63 364.061C375.347 364.805 373.821 365.007 372.388 364.624C371.678 364.435 371.013 364.107 370.429 363.66C369.846 363.212 369.357 362.654 368.99 362.017C368.622 361.38 368.385 360.676 368.29 359.947C368.194 359.217 368.244 358.476 368.436 357.766C368.625 357.056 368.953 356.391 369.399 355.808C369.845 355.225 370.402 354.736 371.037 354.368C371.672 354.001 372.373 353.762 373.101 353.666C373.828 353.57 374.567 353.618 375.275 353.808L375.274 353.807ZM289.615 376.782C290.665 375.735 292.086 375.148 293.567 375.148C295.048 375.148 296.469 375.735 297.518 376.782C299.7 378.982 299.7 382.522 297.515 384.699C296.997 385.22 296.382 385.632 295.704 385.914C295.027 386.196 294.3 386.342 293.566 386.342C292.833 386.342 292.106 386.198 291.428 385.917C290.75 385.636 290.134 385.224 289.615 384.704C287.433 382.524 287.433 378.984 289.615 376.782" fill="#FF8540"/>
</svg>
